<?xml version="1.0" encoding="UTF-8"?>
<svg version="1.1" xmlns="http://www.w3.org/2000/svg" width="200" height="200">
<path d="M0 0 C10.14754139 8.33845102 16.38677629 17.72406001 17.75 31 C18.06704281 39.08939539 16.44963646 44.96342553 13.1875 52.3125 C11.09997058 57.19582775 9.17038939 62.0384271 10.8125 67.3125 C14.73025065 73.42484126 19.79164707 75.59415698 26.3125 78.4375 C41.17076329 85.03890171 41.17076329 85.03890171 44.0625 91.3125 C44.37703125 91.9725 44.6915625 92.6325 45.015625 93.3125 C47.77614483 100.24086351 47.99982374 108.14032596 45.3125 115.125 C42.11333365 121.47779298 36.40212266 125.05605345 29.8125 127.3125 C20.49965578 128.95258742 11.16350459 128.03781659 1.8125 127.3125 C1.1525 127.3125 0.4925 127.3125 -0.1875 127.3125 C-0.20208252 127.91199463 -0.21666504 128.51148926 -0.23168945 129.12915039 C-0.30673821 131.87837455 -0.40320752 134.62645889 -0.5 137.375 C-0.53383789 138.78942383 -0.53383789 138.78942383 -0.56835938 140.23242188 C-0.9094558 149.13193766 -3.12677116 154.90443169 -9.23828125 161.515625 C-14.64323985 166.49815197 -20.89924467 168.41199837 -28.1875 168.3125 C-36.23395325 167.54355566 -42.74227582 164.14315025 -48.3125 158.3125 C-52.37194025 153.30511354 -54.69053581 147.20073117 -57.1875 141.3125 C-61.74138011 141.79695533 -63.71810984 143.38519337 -66.9375 146.5625 C-76.20427769 155.24837521 -83.89485432 157.85067282 -96.484375 157.58203125 C-103.58795392 157.06499861 -107.30320543 154.51309556 -112.0625 149.375 C-117.4183989 143.10984385 -117.71481364 137.03736996 -117.49609375 129.03125 C-116.88145325 121.62444292 -113.53524202 116.81946896 -109.5 110.75 C-106.43097377 106.09399867 -105.29223148 102.86326827 -105.1875 97.3125 C-109.83937322 94.79797394 -114.57078733 93.10025998 -119.6015625 91.47265625 C-123.14740139 89.88184938 -125.44555359 87.79639281 -127.1875 84.3125 C-127.54574459 79.92400374 -127.09379967 76.91091948 -125.375 72.9375 C-124.36868119 70.15476864 -124.01040118 68.86253708 -124.92578125 66.01953125 C-126.22737532 63.67827381 -127.65030785 61.50571608 -129.1875 59.3125 C-130.11111964 57.8585603 -131.02818444 56.40042826 -131.9375 54.9375 C-132.34484375 54.31101563 -132.7521875 53.68453125 -133.171875 53.0390625 C-136.6944764 47.05064012 -136.19518174 38.20503059 -134.50390625 31.671875 C-128.89353408 18.35597093 -118.329656 9.71437929 -105.1875 4.3125 C-94.01525289 1.5278258 -84.61670351 4.17776335 -74.8125 9.8125 C-72.07695988 11.45815474 -69.52158635 13.02933387 -67.0859375 15.09375 C-65.29217191 16.47903954 -65.29217191 16.47903954 -63.25390625 16.3515625 C-60.17477689 14.80326683 -58.29732222 12.28484178 -56.125 9.6875 C-41.62526807 -6.83357002 -19.20296764 -13.36020423 0 0 Z " fill="#000000" transform="translate(147.1875,23.6875)"/>
<path d="M0 0 C4.71237559 2.68052134 7.95035893 6.16357679 9.6875 11.375 C10.85662442 24.66961487 10.85662442 24.66961487 7.5 29.5625 C2.43453809 34.62796191 -1.99167973 36.47357391 -9.0625 36.6875 C-14.27455841 36.62600079 -18.06928408 35.4002558 -22.3125 32.375 C-26.74935969 27.82138084 -28.40854688 23.72405151 -28.625 17.4375 C-28.48578886 11.57323059 -26.82800517 8.13626277 -23 3.6875 C-16.15768959 -2.20006942 -8.37994991 -3.78602652 0 0 Z " fill="#000000" transform="translate(190.3125,63.625)"/>
<path d="M0 0 C3.35191668 2.7001551 4.92077389 5.51242719 5.53515625 9.8046875 C5.73171982 14.33419596 5.14137611 17.32290814 2.25 20.8125 C-1.59259151 24.18932284 -5.38952374 24.31849408 -10.30859375 24.171875 C-13.89138273 23.64448846 -16.05629441 22.1694924 -18.75 19.8125 C-21.59539129 15.54441307 -21.36625375 11.82053677 -20.75 6.8125 C-18.85731344 2.64858958 -17.38063839 1.18136396 -13.4375 -1.125 C-8.31544759 -2.60084561 -4.85438794 -2.09621297 0 0 Z " fill="#000000" transform="translate(89.75,3.1875)"/>
<path d="M0 0 C3.05357079 1.61320721 5.23833566 3.03060902 7.375 5.75 C8.72612235 10.61404047 8.80928793 14.4488648 6.5 18.875 C3.19118143 21.68749578 0.31762531 22.6938997 -4 23 C-8.32637407 22.21983418 -11.22717792 21.45204362 -14 18 C-15.3099083 13.6474566 -15.30741676 9.92225029 -13.875 5.625 C-10.12155776 0.37018087 -6.3609334 -0.78116726 0 0 Z " fill="#000000" transform="translate(22,116)"/>
<path d="M0 0 C3.15850062 2.75356464 3.90662809 4.34639662 4.5 8.5 C3.91076034 12.62467765 3.09536848 14.23045978 0 17 C-3.32884563 18.06239754 -5.30702815 18.17727187 -8.6875 17.3125 C-11.40064104 15.77260914 -12.57072634 14.7833224 -14 12 C-14.53561062 7.79163084 -14.46774118 5.74193428 -12.1875 2.125 C-8.28149586 -1.66940403 -5.0774203 -1.24708569 0 0 Z " fill="#000000" transform="translate(170,164)"/>
<path d="M0 0 C3.375 1 3.375 1 4.875 2.6875 C5.55113479 5.8146234 5.30549185 7.94266963 4.375 11 C2.6875 12.4375 2.6875 12.4375 0.375 13 C-5.05978261 12.56521739 -5.05978261 12.56521739 -7.625 10 C-8.0917512 6.42157414 -8.02728636 4.62756672 -6.0625 1.5625 C-3.625 0 -3.625 0 0 0 Z " fill="#000000" transform="translate(160.625,186)"/>
<path d="M0 0 C3.5 0.125 3.5 0.125 4.5 1.125 C4.625 4.625 4.625 4.625 4.5 8.125 C3.5 9.125 3.5 9.125 0 9.25 C-3.5 9.125 -3.5 9.125 -4.5 8.125 C-4.625 4.625 -4.625 4.625 -4.5 1.125 C-3.5 0.125 -3.5 0.125 0 0 Z " fill="#000000" transform="translate(4.5,102.875)"/>
</svg>
